<?xml version="1.0" encoding="UTF-8" standalone="no"?>
<!DOCTYPE svg PUBLIC "-//W3C//DTD SVG 1.1//EN"
 "http://www.w3.org/Graphics/SVG/1.1/DTD/svg11.dtd">
<!-- Generated by graphviz version 2.47.0 (20210316.0004)
 -->
<!-- Title: dbml Pages: 1 -->
<svg width="2836pt" height="2484pt"
 viewBox="0.00 0.00 2835.53 2484.35" xmlns="http://www.w3.org/2000/svg" xmlns:xlink="http://www.w3.org/1999/xlink">
<g id="graph0" class="graph" transform="scale(1 1) rotate(0) translate(4 2480.35)">
<title>dbml</title>
<!-- Aircraft -->
<g id="Aircraft" class="node">
<title>Aircraft</title>
<ellipse fill="none" stroke="black" stroke-width="0" cx="1205.55" cy="-214.96" rx="387.49" ry="214.92"/>
<polygon fill="#1d71b8" stroke="transparent" points="933.55,-304.96 933.55,-364.96 1477.55,-364.96 1477.55,-304.96 933.55,-304.96"/>
<polygon fill="none" stroke="#29235c" points="933.55,-304.96 933.55,-364.96 1477.55,-364.96 1477.55,-304.96 933.55,-304.96"/>
<text text-anchor="start" x="1092.64" y="-326.16" font-family="Helvetica,sans-Serif" font-weight="bold" font-size="32.00" fill="#ffffff"> &#160;&#160;&#160;&#160;&#160;&#160;Aircraft &#160;&#160;&#160;&#160;&#160;&#160;</text>
<polygon fill="#e7e2dd" stroke="transparent" points="933.55,-244.96 933.55,-304.96 1477.55,-304.96 1477.55,-244.96 933.55,-244.96"/>
<polygon fill="none" stroke="#29235c" points="933.55,-244.96 933.55,-304.96 1477.55,-304.96 1477.55,-244.96 933.55,-244.96"/>
<text text-anchor="start" x="944.55" y="-266.16" font-family="Helvetica,sans-Serif" font-weight="bold" font-size="32.00" fill="#29235c">id</text>
<text text-anchor="start" x="969.44" y="-266.16" font-family="Helvetica,sans-Serif" font-size="32.00" fill="#29235c"> &#160;&#160;&#160;</text>
<text text-anchor="start" x="1324.34" y="-266.16" font-family="Helvetica,sans-Serif" font-style="italic" font-size="32.00" fill="#29235c">INTEGER</text>
<polygon fill="#e7e2dd" stroke="transparent" points="933.55,-184.96 933.55,-244.96 1477.55,-244.96 1477.55,-184.96 933.55,-184.96"/>
<polygon fill="none" stroke="#29235c" points="933.55,-184.96 933.55,-244.96 1477.55,-244.96 1477.55,-184.96 933.55,-184.96"/>
<text text-anchor="start" x="944.55" y="-205.16" font-family="Helvetica,sans-Serif" font-size="32.00" fill="#29235c">model &#160;&#160;&#160;</text>
<text text-anchor="start" x="1310.13" y="-206.16" font-family="Helvetica,sans-Serif" font-style="italic" font-size="32.00" fill="#29235c">VARCHAR</text>
<polygon fill="#e7e2dd" stroke="transparent" points="933.55,-124.96 933.55,-184.96 1477.55,-184.96 1477.55,-124.96 933.55,-124.96"/>
<polygon fill="none" stroke="#29235c" points="933.55,-124.96 933.55,-184.96 1477.55,-184.96 1477.55,-124.96 933.55,-124.96"/>
<text text-anchor="start" x="944.55" y="-145.16" font-family="Helvetica,sans-Serif" font-size="32.00" fill="#29235c">max_capacity &#160;&#160;&#160;</text>
<text text-anchor="start" x="1324.34" y="-146.16" font-family="Helvetica,sans-Serif" font-style="italic" font-size="32.00" fill="#29235c">INTEGER</text>
<polygon fill="#e7e2dd" stroke="transparent" points="933.55,-64.96 933.55,-124.96 1477.55,-124.96 1477.55,-64.96 933.55,-64.96"/>
<polygon fill="none" stroke="#29235c" points="933.55,-64.96 933.55,-124.96 1477.55,-124.96 1477.55,-64.96 933.55,-64.96"/>
<text text-anchor="start" x="944.41" y="-85.16" font-family="Helvetica,sans-Serif" font-size="32.00" fill="#29235c">aviation_serial_number &#160;&#160;&#160;</text>
<text text-anchor="start" x="1310.34" y="-86.16" font-family="Helvetica,sans-Serif" font-style="italic" font-size="32.00" fill="#29235c">VARCHAR</text>
<polygon fill="none" stroke="#29235c" stroke-width="2" points="932.55,-63.96 932.55,-365.96 1478.55,-365.96 1478.55,-63.96 932.55,-63.96"/>
</g>
<!-- Airline -->
<g id="Airline" class="node">
<title>Airline</title>
<ellipse fill="none" stroke="black" stroke-width="0" cx="2575.8" cy="-1882.96" rx="251.96" ry="172.57"/>
<polygon fill="#1d71b8" stroke="transparent" points="2399.8,-1942.96 2399.8,-2002.96 2751.8,-2002.96 2751.8,-1942.96 2399.8,-1942.96"/>
<polygon fill="none" stroke="#29235c" points="2399.8,-1942.96 2399.8,-2002.96 2751.8,-2002.96 2751.8,-1942.96 2399.8,-1942.96"/>
<text text-anchor="start" x="2469.12" y="-1964.16" font-family="Helvetica,sans-Serif" font-weight="bold" font-size="32.00" fill="#ffffff"> &#160;&#160;&#160;&#160;&#160;&#160;Airline &#160;&#160;&#160;&#160;&#160;&#160;</text>
<polygon fill="#e7e2dd" stroke="transparent" points="2399.8,-1882.96 2399.8,-1942.96 2751.8,-1942.96 2751.8,-1882.96 2399.8,-1882.96"/>
<polygon fill="none" stroke="#29235c" points="2399.8,-1882.96 2399.8,-1942.96 2751.8,-1942.96 2751.8,-1882.96 2399.8,-1882.96"/>
<text text-anchor="start" x="2410.8" y="-1904.16" font-family="Helvetica,sans-Serif" font-weight="bold" font-size="32.00" fill="#29235c">id</text>
<text text-anchor="start" x="2435.69" y="-1904.16" font-family="Helvetica,sans-Serif" font-size="32.00" fill="#29235c"> &#160;&#160;&#160;</text>
<text text-anchor="start" x="2598.59" y="-1904.16" font-family="Helvetica,sans-Serif" font-style="italic" font-size="32.00" fill="#29235c">INTEGER</text>
<polygon fill="#e7e2dd" stroke="transparent" points="2399.8,-1822.96 2399.8,-1882.96 2751.8,-1882.96 2751.8,-1822.96 2399.8,-1822.96"/>
<polygon fill="none" stroke="#29235c" points="2399.8,-1822.96 2399.8,-1882.96 2751.8,-1882.96 2751.8,-1822.96 2399.8,-1822.96"/>
<text text-anchor="start" x="2410.8" y="-1843.16" font-family="Helvetica,sans-Serif" font-size="32.00" fill="#29235c">name &#160;&#160;&#160;</text>
<text text-anchor="start" x="2584.38" y="-1844.16" font-family="Helvetica,sans-Serif" font-style="italic" font-size="32.00" fill="#29235c">VARCHAR</text>
<polygon fill="#e7e2dd" stroke="transparent" points="2399.8,-1762.96 2399.8,-1822.96 2751.8,-1822.96 2751.8,-1762.96 2399.8,-1762.96"/>
<polygon fill="none" stroke="#29235c" points="2399.8,-1762.96 2399.8,-1822.96 2751.8,-1822.96 2751.8,-1762.96 2399.8,-1762.96"/>
<text text-anchor="start" x="2410.65" y="-1783.16" font-family="Helvetica,sans-Serif" font-size="32.00" fill="#29235c">iata_code &#160;&#160;&#160;</text>
<text text-anchor="start" x="2584.59" y="-1784.16" font-family="Helvetica,sans-Serif" font-style="italic" font-size="32.00" fill="#29235c">VARCHAR</text>
<polygon fill="none" stroke="#29235c" stroke-width="2" points="2398.8,-1761.96 2398.8,-2003.96 2752.8,-2003.96 2752.8,-1761.96 2398.8,-1761.96"/>
</g>
<!-- Airport -->
<g id="Airport" class="node">
<title>Airport</title>
<ellipse fill="none" stroke="black" stroke-width="0" cx="2575.8" cy="-1398.96" rx="231.45" ry="214.92"/>
<polygon fill="#1d71b8" stroke="transparent" points="2414.8,-1488.96 2414.8,-1548.96 2737.8,-1548.96 2737.8,-1488.96 2414.8,-1488.96"/>
<polygon fill="none" stroke="#29235c" points="2414.8,-1488.96 2414.8,-1548.96 2737.8,-1548.96 2737.8,-1488.96 2414.8,-1488.96"/>
<text text-anchor="start" x="2466.94" y="-1510.16" font-family="Helvetica,sans-Serif" font-weight="bold" font-size="32.00" fill="#ffffff"> &#160;&#160;&#160;&#160;&#160;&#160;Airport &#160;&#160;&#160;&#160;&#160;&#160;</text>
<polygon fill="#e7e2dd" stroke="transparent" points="2414.8,-1428.96 2414.8,-1488.96 2737.8,-1488.96 2737.8,-1428.96 2414.8,-1428.96"/>
<polygon fill="none" stroke="#29235c" points="2414.8,-1428.96 2414.8,-1488.96 2737.8,-1488.96 2737.8,-1428.96 2414.8,-1428.96"/>
<text text-anchor="start" x="2425.8" y="-1450.16" font-family="Helvetica,sans-Serif" font-weight="bold" font-size="32.00" fill="#29235c">id</text>
<text text-anchor="start" x="2450.69" y="-1450.16" font-family="Helvetica,sans-Serif" font-size="32.00" fill="#29235c"> &#160;&#160;&#160;</text>
<text text-anchor="start" x="2584.59" y="-1450.16" font-family="Helvetica,sans-Serif" font-style="italic" font-size="32.00" fill="#29235c">INTEGER</text>
<polygon fill="#e7e2dd" stroke="transparent" points="2414.8,-1368.96 2414.8,-1428.96 2737.8,-1428.96 2737.8,-1368.96 2414.8,-1368.96"/>
<polygon fill="none" stroke="#29235c" points="2414.8,-1368.96 2414.8,-1428.96 2737.8,-1428.96 2737.8,-1368.96 2414.8,-1368.96"/>
<text text-anchor="start" x="2425.8" y="-1389.16" font-family="Helvetica,sans-Serif" font-size="32.00" fill="#29235c">name &#160;&#160;&#160;</text>
<text text-anchor="start" x="2570.38" y="-1390.16" font-family="Helvetica,sans-Serif" font-style="italic" font-size="32.00" fill="#29235c">VARCHAR</text>
<polygon fill="#e7e2dd" stroke="transparent" points="2414.8,-1308.96 2414.8,-1368.96 2737.8,-1368.96 2737.8,-1308.96 2414.8,-1308.96"/>
<polygon fill="none" stroke="#29235c" points="2414.8,-1308.96 2414.8,-1368.96 2737.8,-1368.96 2737.8,-1308.96 2414.8,-1308.96"/>
<text text-anchor="start" x="2425.39" y="-1329.16" font-family="Helvetica,sans-Serif" font-size="32.00" fill="#29235c">location &#160;&#160;&#160;</text>
<text text-anchor="start" x="2570.59" y="-1330.16" font-family="Helvetica,sans-Serif" font-style="italic" font-size="32.00" fill="#29235c">VARCHAR</text>
<polygon fill="#e7e2dd" stroke="transparent" points="2414.8,-1248.96 2414.8,-1308.96 2737.8,-1308.96 2737.8,-1248.96 2414.8,-1248.96"/>
<polygon fill="none" stroke="#29235c" points="2414.8,-1248.96 2414.8,-1308.96 2737.8,-1308.96 2737.8,-1248.96 2414.8,-1248.96"/>
<text text-anchor="start" x="2425.8" y="-1269.16" font-family="Helvetica,sans-Serif" font-size="32.00" fill="#29235c">code &#160;&#160;&#160;</text>
<text text-anchor="start" x="2570.38" y="-1270.16" font-family="Helvetica,sans-Serif" font-style="italic" font-size="32.00" fill="#29235c">VARCHAR</text>
<polygon fill="none" stroke="#29235c" stroke-width="2" points="2413.3,-1247.96 2413.3,-1549.96 2738.3,-1549.96 2738.3,-1247.96 2413.3,-1247.96"/>
</g>
<!-- BoardingPass -->
<g id="BoardingPass" class="node">
<title>BoardingPass</title>
<ellipse fill="none" stroke="black" stroke-width="0" cx="391.03" cy="-1436.96" rx="285.84" ry="214.92"/>
<polygon fill="#1d71b8" stroke="transparent" points="191.03,-1526.96 191.03,-1586.96 591.03,-1586.96 591.03,-1526.96 191.03,-1526.96"/>
<polygon fill="none" stroke="#29235c" points="191.03,-1526.96 191.03,-1586.96 591.03,-1586.96 591.03,-1526.96 191.03,-1526.96"/>
<text text-anchor="start" x="229.2" y="-1548.16" font-family="Helvetica,sans-Serif" font-weight="bold" font-size="32.00" fill="#ffffff"> &#160;&#160;&#160;&#160;&#160;&#160;BoardingPass &#160;&#160;&#160;&#160;&#160;&#160;</text>
<polygon fill="#e7e2dd" stroke="transparent" points="191.03,-1466.96 191.03,-1526.96 591.03,-1526.96 591.03,-1466.96 191.03,-1466.96"/>
<polygon fill="none" stroke="#29235c" points="191.03,-1466.96 191.03,-1526.96 591.03,-1526.96 591.03,-1466.96 191.03,-1466.96"/>
<text text-anchor="start" x="202.03" y="-1488.16" font-family="Helvetica,sans-Serif" font-weight="bold" font-size="32.00" fill="#29235c">id</text>
<text text-anchor="start" x="226.92" y="-1488.16" font-family="Helvetica,sans-Serif" font-size="32.00" fill="#29235c"> &#160;&#160;&#160;</text>
<text text-anchor="start" x="437.81" y="-1488.16" font-family="Helvetica,sans-Serif" font-style="italic" font-size="32.00" fill="#29235c">INTEGER</text>
<polygon fill="#e7e2dd" stroke="transparent" points="191.03,-1406.96 191.03,-1466.96 591.03,-1466.96 591.03,-1406.96 191.03,-1406.96"/>
<polygon fill="none" stroke="#29235c" points="191.03,-1406.96 191.03,-1466.96 591.03,-1466.96 591.03,-1406.96 191.03,-1406.96"/>
<text text-anchor="start" x="202.03" y="-1427.16" font-family="Helvetica,sans-Serif" font-size="32.00" fill="#29235c">booking_id &#160;&#160;&#160;</text>
<text text-anchor="start" x="437.81" y="-1428.16" font-family="Helvetica,sans-Serif" font-style="italic" font-size="32.00" fill="#29235c">INTEGER</text>
<polygon fill="#e7e2dd" stroke="transparent" points="191.03,-1346.96 191.03,-1406.96 591.03,-1406.96 591.03,-1346.96 191.03,-1346.96"/>
<polygon fill="none" stroke="#29235c" points="191.03,-1346.96 191.03,-1406.96 591.03,-1406.96 591.03,-1346.96 191.03,-1346.96"/>
<text text-anchor="start" x="202.03" y="-1367.16" font-family="Helvetica,sans-Serif" font-size="32.00" fill="#29235c">issued_time &#160;&#160;&#160;</text>
<text text-anchor="start" x="418.26" y="-1368.16" font-family="Helvetica,sans-Serif" font-style="italic" font-size="32.00" fill="#29235c">DATETIME</text>
<polygon fill="#e7e2dd" stroke="transparent" points="191.03,-1286.96 191.03,-1346.96 591.03,-1346.96 591.03,-1286.96 191.03,-1286.96"/>
<polygon fill="none" stroke="#29235c" points="191.03,-1286.96 191.03,-1346.96 591.03,-1346.96 591.03,-1286.96 191.03,-1286.96"/>
<text text-anchor="start" x="201.88" y="-1307.16" font-family="Helvetica,sans-Serif" font-size="32.00" fill="#29235c">seat_number &#160;&#160;&#160;</text>
<text text-anchor="start" x="423.82" y="-1308.16" font-family="Helvetica,sans-Serif" font-style="italic" font-size="32.00" fill="#29235c">VARCHAR</text>
<polygon fill="none" stroke="#29235c" stroke-width="2" points="190.03,-1285.96 190.03,-1587.96 592.03,-1587.96 592.03,-1285.96 190.03,-1285.96"/>
</g>
<!-- Booking -->
<g id="Booking" class="node">
<title>Booking</title>
<ellipse fill="none" stroke="black" stroke-width="0" cx="1205.55" cy="-1152.96" rx="324.62" ry="257.27"/>
<polygon fill="#1d71b8" stroke="transparent" points="978.55,-1272.96 978.55,-1332.96 1433.55,-1332.96 1433.55,-1272.96 978.55,-1272.96"/>
<polygon fill="none" stroke="#29235c" points="978.55,-1272.96 978.55,-1332.96 1433.55,-1332.96 1433.55,-1272.96 978.55,-1272.96"/>
<text text-anchor="start" x="1086.01" y="-1294.16" font-family="Helvetica,sans-Serif" font-weight="bold" font-size="32.00" fill="#ffffff"> &#160;&#160;&#160;&#160;&#160;&#160;Booking &#160;&#160;&#160;&#160;&#160;&#160;</text>
<polygon fill="#e7e2dd" stroke="transparent" points="978.55,-1212.96 978.55,-1272.96 1433.55,-1272.96 1433.55,-1212.96 978.55,-1212.96"/>
<polygon fill="none" stroke="#29235c" points="978.55,-1212.96 978.55,-1272.96 1433.55,-1272.96 1433.55,-1212.96 978.55,-1212.96"/>
<text text-anchor="start" x="989.55" y="-1234.16" font-family="Helvetica,sans-Serif" font-weight="bold" font-size="32.00" fill="#29235c">id</text>
<text text-anchor="start" x="1014.44" y="-1234.16" font-family="Helvetica,sans-Serif" font-size="32.00" fill="#29235c"> &#160;&#160;&#160;</text>
<text text-anchor="start" x="1280.34" y="-1234.16" font-family="Helvetica,sans-Serif" font-style="italic" font-size="32.00" fill="#29235c">INTEGER</text>
<polygon fill="#e7e2dd" stroke="transparent" points="978.55,-1152.96 978.55,-1212.96 1433.55,-1212.96 1433.55,-1152.96 978.55,-1152.96"/>
<polygon fill="none" stroke="#29235c" points="978.55,-1152.96 978.55,-1212.96 1433.55,-1212.96 1433.55,-1152.96 978.55,-1152.96"/>
<text text-anchor="start" x="989.55" y="-1173.16" font-family="Helvetica,sans-Serif" font-size="32.00" fill="#29235c">flight_id &#160;&#160;&#160;</text>
<text text-anchor="start" x="1280.34" y="-1174.16" font-family="Helvetica,sans-Serif" font-style="italic" font-size="32.00" fill="#29235c">INTEGER</text>
<polygon fill="#e7e2dd" stroke="transparent" points="978.55,-1092.96 978.55,-1152.96 1433.55,-1152.96 1433.55,-1092.96 978.55,-1092.96"/>
<polygon fill="none" stroke="#29235c" points="978.55,-1092.96 978.55,-1152.96 1433.55,-1152.96 1433.55,-1092.96 978.55,-1092.96"/>
<text text-anchor="start" x="989.55" y="-1113.16" font-family="Helvetica,sans-Serif" font-size="32.00" fill="#29235c">passenger_id &#160;&#160;&#160;</text>
<text text-anchor="start" x="1280.34" y="-1114.16" font-family="Helvetica,sans-Serif" font-style="italic" font-size="32.00" fill="#29235c">INTEGER</text>
<polygon fill="#e7e2dd" stroke="transparent" points="978.55,-1032.96 978.55,-1092.96 1433.55,-1092.96 1433.55,-1032.96 978.55,-1032.96"/>
<polygon fill="none" stroke="#29235c" points="978.55,-1032.96 978.55,-1092.96 1433.55,-1092.96 1433.55,-1032.96 978.55,-1032.96"/>
<text text-anchor="start" x="989.49" y="-1053.16" font-family="Helvetica,sans-Serif" font-size="32.00" fill="#29235c">date_of_booking &#160;&#160;&#160;</text>
<text text-anchor="start" x="1261.17" y="-1054.16" font-family="Helvetica,sans-Serif" font-style="italic" font-size="32.00" fill="#29235c">DATETIME</text>
<polygon fill="#e7e2dd" stroke="transparent" points="978.55,-972.96 978.55,-1032.96 1433.55,-1032.96 1433.55,-972.96 978.55,-972.96"/>
<polygon fill="none" stroke="#29235c" points="978.55,-972.96 978.55,-1032.96 1433.55,-1032.96 1433.55,-972.96 978.55,-972.96"/>
<text text-anchor="start" x="989.55" y="-993.16" font-family="Helvetica,sans-Serif" font-size="32.00" fill="#29235c">seat_number &#160;&#160;&#160;</text>
<text text-anchor="start" x="1266.13" y="-994.16" font-family="Helvetica,sans-Serif" font-style="italic" font-size="32.00" fill="#29235c">VARCHAR</text>
<polygon fill="none" stroke="#29235c" stroke-width="2" points="977.05,-971.96 977.05,-1333.96 1434.05,-1333.96 1434.05,-971.96 977.05,-971.96"/>
</g>
<!-- BoardingPass&#45;&gt;Booking -->
<!-- BoardingPass&#45;&gt;Booking -->
<g id="edge2" class="edge">
<title>BoardingPass:e&#45;&gt;Booking:w</title>
<path fill="none" stroke="#29235c" stroke-width="3" d="M592.03,-1436.96C780.38,-1436.96 785.61,-1249.91 967.34,-1243.15"/>
<polygon fill="#29235c" stroke="#29235c" stroke-width="3" points="967.62,-1246.64 977.55,-1242.96 967.49,-1239.64 967.62,-1246.64"/>
<text text-anchor="middle" x="983.78" y="-1252.56" font-family="Helvetica,sans-Serif" font-size="32.00" fill="#29235c">*</text>
<text text-anchor="middle" x="583.14" y="-1446.56" font-family="Helvetica,sans-Serif" font-size="32.00" fill="#29235c">1</text>
</g>
<!-- Flight -->
<g id="Flight" class="node">
<title>Flight</title>
<ellipse fill="none" stroke="black" stroke-width="0" cx="1958.56" cy="-1152.96" rx="270.64" ry="257.27"/>
<polygon fill="#1d71b8" stroke="transparent" points="1769.56,-1272.96 1769.56,-1332.96 2148.56,-1332.96 2148.56,-1272.96 1769.56,-1272.96"/>
<polygon fill="none" stroke="#29235c" points="1769.56,-1272.96 1769.56,-1332.96 2148.56,-1332.96 2148.56,-1272.96 1769.56,-1272.96"/>
<text text-anchor="start" x="1857.7" y="-1294.16" font-family="Helvetica,sans-Serif" font-weight="bold" font-size="32.00" fill="#ffffff"> &#160;&#160;&#160;&#160;&#160;&#160;Flight &#160;&#160;&#160;&#160;&#160;&#160;</text>
<polygon fill="#e7e2dd" stroke="transparent" points="1769.56,-1212.96 1769.56,-1272.96 2148.56,-1272.96 2148.56,-1212.96 1769.56,-1212.96"/>
<polygon fill="none" stroke="#29235c" points="1769.56,-1212.96 1769.56,-1272.96 2148.56,-1272.96 2148.56,-1212.96 1769.56,-1212.96"/>
<text text-anchor="start" x="1780.56" y="-1234.16" font-family="Helvetica,sans-Serif" font-weight="bold" font-size="32.00" fill="#29235c">id</text>
<text text-anchor="start" x="1805.45" y="-1234.16" font-family="Helvetica,sans-Serif" font-size="32.00" fill="#29235c"> &#160;&#160;&#160;</text>
<text text-anchor="start" x="1995.34" y="-1234.16" font-family="Helvetica,sans-Serif" font-style="italic" font-size="32.00" fill="#29235c">INTEGER</text>
<polygon fill="#e7e2dd" stroke="transparent" points="1769.56,-1152.96 1769.56,-1212.96 2148.56,-1212.96 2148.56,-1152.96 1769.56,-1152.96"/>
<polygon fill="none" stroke="#29235c" points="1769.56,-1152.96 1769.56,-1212.96 2148.56,-1212.96 2148.56,-1152.96 1769.56,-1152.96"/>
<text text-anchor="start" x="1780.56" y="-1173.16" font-family="Helvetica,sans-Serif" font-size="32.00" fill="#29235c">number &#160;&#160;&#160;</text>
<text text-anchor="start" x="1981.14" y="-1174.16" font-family="Helvetica,sans-Serif" font-style="italic" font-size="32.00" fill="#29235c">VARCHAR</text>
<polygon fill="#e7e2dd" stroke="transparent" points="1769.56,-1092.96 1769.56,-1152.96 2148.56,-1152.96 2148.56,-1092.96 1769.56,-1092.96"/>
<polygon fill="none" stroke="#29235c" points="1769.56,-1092.96 1769.56,-1152.96 2148.56,-1152.96 2148.56,-1092.96 1769.56,-1092.96"/>
<text text-anchor="start" x="1780.47" y="-1113.16" font-family="Helvetica,sans-Serif" font-size="32.00" fill="#29235c">departure_id &#160;&#160;&#160;</text>
<text text-anchor="start" x="1995.45" y="-1114.16" font-family="Helvetica,sans-Serif" font-style="italic" font-size="32.00" fill="#29235c">INTEGER</text>
<polygon fill="#e7e2dd" stroke="transparent" points="1769.56,-1032.96 1769.56,-1092.96 2148.56,-1092.96 2148.56,-1032.96 1769.56,-1032.96"/>
<polygon fill="none" stroke="#29235c" points="1769.56,-1032.96 1769.56,-1092.96 2148.56,-1092.96 2148.56,-1032.96 1769.56,-1032.96"/>
<text text-anchor="start" x="1780.56" y="-1053.16" font-family="Helvetica,sans-Serif" font-size="32.00" fill="#29235c">arrival_id &#160;&#160;&#160;</text>
<text text-anchor="start" x="1995.34" y="-1054.16" font-family="Helvetica,sans-Serif" font-style="italic" font-size="32.00" fill="#29235c">INTEGER</text>
<polygon fill="#e7e2dd" stroke="transparent" points="1769.56,-972.96 1769.56,-1032.96 2148.56,-1032.96 2148.56,-972.96 1769.56,-972.96"/>
<polygon fill="none" stroke="#29235c" points="1769.56,-972.96 1769.56,-1032.96 2148.56,-1032.96 2148.56,-972.96 1769.56,-972.96"/>
<text text-anchor="start" x="1780.56" y="-993.16" font-family="Helvetica,sans-Serif" font-size="32.00" fill="#29235c">date &#160;&#160;&#160;</text>
<text text-anchor="start" x="2052.23" y="-994.16" font-family="Helvetica,sans-Serif" font-style="italic" font-size="32.00" fill="#29235c">DATE</text>
<polygon fill="none" stroke="#29235c" stroke-width="2" points="1768.06,-971.96 1768.06,-1333.96 2149.06,-1333.96 2149.06,-971.96 1768.06,-971.96"/>
</g>
<!-- Booking&#45;&gt;Flight -->
<!-- Booking&#45;&gt;Flight -->
<g id="edge4" class="edge">
<title>Booking:e&#45;&gt;Flight:w</title>
<path fill="none" stroke="#29235c" stroke-width="3" d="M1434.55,-1182.96C1581.84,-1182.96 1616.16,-1240.18 1758.15,-1242.86"/>
<polygon fill="#29235c" stroke="#29235c" stroke-width="3" points="1758.53,-1246.37 1768.56,-1242.96 1758.59,-1239.37 1758.53,-1246.37"/>
<text text-anchor="middle" x="1774.78" y="-1252.56" font-family="Helvetica,sans-Serif" font-size="32.00" fill="#29235c">*</text>
<text text-anchor="middle" x="1443.45" y="-1192.56" font-family="Helvetica,sans-Serif" font-size="32.00" fill="#29235c">1</text>
</g>
<!-- Passenger -->
<g id="Passenger" class="node">
<title>Passenger</title>
<ellipse fill="none" stroke="black" stroke-width="0" cx="1958.56" cy="-662.96" rx="329.52" ry="214.92"/>
<polygon fill="#1d71b8" stroke="transparent" points="1727.56,-752.96 1727.56,-812.96 2189.56,-812.96 2189.56,-752.96 1727.56,-752.96"/>
<polygon fill="none" stroke="#29235c" points="1727.56,-752.96 1727.56,-812.96 2189.56,-812.96 2189.56,-752.96 1727.56,-752.96"/>
<text text-anchor="start" x="1819.84" y="-774.16" font-family="Helvetica,sans-Serif" font-weight="bold" font-size="32.00" fill="#ffffff"> &#160;&#160;&#160;&#160;&#160;&#160;Passenger &#160;&#160;&#160;&#160;&#160;&#160;</text>
<polygon fill="#e7e2dd" stroke="transparent" points="1727.56,-692.96 1727.56,-752.96 2189.56,-752.96 2189.56,-692.96 1727.56,-692.96"/>
<polygon fill="none" stroke="#29235c" points="1727.56,-692.96 1727.56,-752.96 2189.56,-752.96 2189.56,-692.96 1727.56,-692.96"/>
<text text-anchor="start" x="1738.56" y="-714.16" font-family="Helvetica,sans-Serif" font-weight="bold" font-size="32.00" fill="#29235c">id</text>
<text text-anchor="start" x="1763.45" y="-714.16" font-family="Helvetica,sans-Serif" font-size="32.00" fill="#29235c"> &#160;&#160;&#160;</text>
<text text-anchor="start" x="2036.34" y="-714.16" font-family="Helvetica,sans-Serif" font-style="italic" font-size="32.00" fill="#29235c">INTEGER</text>
<polygon fill="#e7e2dd" stroke="transparent" points="1727.56,-632.96 1727.56,-692.96 2189.56,-692.96 2189.56,-632.96 1727.56,-632.96"/>
<polygon fill="none" stroke="#29235c" points="1727.56,-632.96 1727.56,-692.96 2189.56,-692.96 2189.56,-632.96 1727.56,-632.96"/>
<text text-anchor="start" x="1738.56" y="-653.16" font-family="Helvetica,sans-Serif" font-size="32.00" fill="#29235c">first_name &#160;&#160;&#160;</text>
<text text-anchor="start" x="2022.14" y="-654.16" font-family="Helvetica,sans-Serif" font-style="italic" font-size="32.00" fill="#29235c">VARCHAR</text>
<polygon fill="#e7e2dd" stroke="transparent" points="1727.56,-572.96 1727.56,-632.96 2189.56,-632.96 2189.56,-572.96 1727.56,-572.96"/>
<polygon fill="none" stroke="#29235c" points="1727.56,-572.96 1727.56,-632.96 2189.56,-632.96 2189.56,-572.96 1727.56,-572.96"/>
<text text-anchor="start" x="1738.56" y="-593.16" font-family="Helvetica,sans-Serif" font-size="32.00" fill="#29235c">last_name &#160;&#160;&#160;</text>
<text text-anchor="start" x="2022.14" y="-594.16" font-family="Helvetica,sans-Serif" font-style="italic" font-size="32.00" fill="#29235c">VARCHAR</text>
<polygon fill="#e7e2dd" stroke="transparent" points="1727.56,-512.96 1727.56,-572.96 2189.56,-572.96 2189.56,-512.96 1727.56,-512.96"/>
<polygon fill="none" stroke="#29235c" points="1727.56,-512.96 1727.56,-572.96 2189.56,-572.96 2189.56,-512.96 1727.56,-512.96"/>
<text text-anchor="start" x="1738.3" y="-533.16" font-family="Helvetica,sans-Serif" font-size="32.00" fill="#29235c">passport_number &#160;&#160;&#160;</text>
<text text-anchor="start" x="2022.35" y="-534.16" font-family="Helvetica,sans-Serif" font-style="italic" font-size="32.00" fill="#29235c">VARCHAR</text>
<polygon fill="none" stroke="#29235c" stroke-width="2" points="1726.56,-511.96 1726.56,-813.96 2190.56,-813.96 2190.56,-511.96 1726.56,-511.96"/>
</g>
<!-- Booking&#45;&gt;Passenger -->
<!-- Booking&#45;&gt;Passenger -->
<g id="edge6" class="edge">
<title>Booking:e&#45;&gt;Passenger:w</title>
<path fill="none" stroke="#29235c" stroke-width="3" d="M1434.55,-1122.96C1541.17,-1122.96 1611.98,-747.57 1716.35,-724.11"/>
<polygon fill="#29235c" stroke="#29235c" stroke-width="3" points="1717.01,-727.56 1726.56,-722.96 1716.23,-720.6 1717.01,-727.56"/>
<text text-anchor="middle" x="1732.78" y="-722.96" font-family="Helvetica,sans-Serif" font-size="32.00" fill="#29235c">*</text>
<text text-anchor="middle" x="1443.45" y="-1132.56" font-family="Helvetica,sans-Serif" font-size="32.00" fill="#29235c">1</text>
</g>
<!-- Flight&#45;&gt;Airport -->
<!-- Flight&#45;&gt;Airport -->
<g id="edge8" class="edge">
<title>Flight:e&#45;&gt;Airport:w</title>
<path fill="none" stroke="#29235c" stroke-width="3" d="M2149.56,-1062.96C2357.63,-1062.96 2207.39,-1445.92 2403.57,-1458.64"/>
<polygon fill="#29235c" stroke="#29235c" stroke-width="3" points="2403.7,-1462.14 2413.8,-1458.96 2403.92,-1455.15 2403.7,-1462.14"/>
<text text-anchor="middle" x="2420.03" y="-1468.56" font-family="Helvetica,sans-Serif" font-size="32.00" fill="#29235c">*</text>
<text text-anchor="middle" x="2158.46" y="-1072.56" font-family="Helvetica,sans-Serif" font-size="32.00" fill="#29235c">1</text>
</g>
<!-- Flight&#45;&gt;Airport -->
<!-- Flight&#45;&gt;Airport -->
<g id="edge10" class="edge">
<title>Flight:e&#45;&gt;Airport:w</title>
<path fill="none" stroke="#29235c" stroke-width="3" d="M2149.56,-1122.96C2336.11,-1122.96 2227.9,-1446.93 2403.8,-1458.64"/>
<polygon fill="#29235c" stroke="#29235c" stroke-width="3" points="2403.69,-1462.13 2413.8,-1458.96 2403.92,-1455.14 2403.69,-1462.13"/>
<text text-anchor="middle" x="2420.03" y="-1430.16" font-family="Helvetica,sans-Serif" font-size="32.00" fill="#29235c">*</text>
<text text-anchor="middle" x="2158.46" y="-1132.56" font-family="Helvetica,sans-Serif" font-size="32.00" fill="#29235c">1</text>
</g>
<!-- CheckIn -->
<g id="CheckIn" class="node">
<title>CheckIn</title>
<ellipse fill="none" stroke="black" stroke-width="0" cx="391.03" cy="-988.96" rx="301.87" ry="214.92"/>
<polygon fill="#1d71b8" stroke="transparent" points="180.03,-1078.96 180.03,-1138.96 603.03,-1138.96 603.03,-1078.96 180.03,-1078.96"/>
<polygon fill="none" stroke="#29235c" points="180.03,-1078.96 180.03,-1138.96 603.03,-1138.96 603.03,-1078.96 180.03,-1078.96"/>
<text text-anchor="start" x="270.6" y="-1100.16" font-family="Helvetica,sans-Serif" font-weight="bold" font-size="32.00" fill="#ffffff"> &#160;&#160;&#160;&#160;&#160;&#160;CheckIn &#160;&#160;&#160;&#160;&#160;&#160;</text>
<polygon fill="#e7e2dd" stroke="transparent" points="180.03,-1018.96 180.03,-1078.96 603.03,-1078.96 603.03,-1018.96 180.03,-1018.96"/>
<polygon fill="none" stroke="#29235c" points="180.03,-1018.96 180.03,-1078.96 603.03,-1078.96 603.03,-1018.96 180.03,-1018.96"/>
<text text-anchor="start" x="191.03" y="-1040.16" font-family="Helvetica,sans-Serif" font-weight="bold" font-size="32.00" fill="#29235c">id</text>
<text text-anchor="start" x="215.92" y="-1040.16" font-family="Helvetica,sans-Serif" font-size="32.00" fill="#29235c"> &#160;&#160;&#160;</text>
<text text-anchor="start" x="449.81" y="-1040.16" font-family="Helvetica,sans-Serif" font-style="italic" font-size="32.00" fill="#29235c">INTEGER</text>
<polygon fill="#e7e2dd" stroke="transparent" points="180.03,-958.96 180.03,-1018.96 603.03,-1018.96 603.03,-958.96 180.03,-958.96"/>
<polygon fill="none" stroke="#29235c" points="180.03,-958.96 180.03,-1018.96 603.03,-1018.96 603.03,-958.96 180.03,-958.96"/>
<text text-anchor="start" x="191.03" y="-979.16" font-family="Helvetica,sans-Serif" font-size="32.00" fill="#29235c">booking_id &#160;&#160;&#160;</text>
<text text-anchor="start" x="449.81" y="-980.16" font-family="Helvetica,sans-Serif" font-style="italic" font-size="32.00" fill="#29235c">INTEGER</text>
<polygon fill="#e7e2dd" stroke="transparent" points="180.03,-898.96 180.03,-958.96 603.03,-958.96 603.03,-898.96 180.03,-898.96"/>
<polygon fill="none" stroke="#29235c" points="180.03,-898.96 180.03,-958.96 603.03,-958.96 603.03,-898.96 180.03,-898.96"/>
<text text-anchor="start" x="191" y="-919.16" font-family="Helvetica,sans-Serif" font-size="32.00" fill="#29235c">check_in_time &#160;&#160;&#160;</text>
<text text-anchor="start" x="430.65" y="-920.16" font-family="Helvetica,sans-Serif" font-style="italic" font-size="32.00" fill="#29235c">DATETIME</text>
<polygon fill="#e7e2dd" stroke="transparent" points="180.03,-838.96 180.03,-898.96 603.03,-898.96 603.03,-838.96 180.03,-838.96"/>
<polygon fill="none" stroke="#29235c" points="180.03,-838.96 180.03,-898.96 603.03,-898.96 603.03,-838.96 180.03,-838.96"/>
<text text-anchor="start" x="191.03" y="-859.16" font-family="Helvetica,sans-Serif" font-size="32.00" fill="#29235c">gate_number &#160;&#160;&#160;</text>
<text text-anchor="start" x="435.6" y="-860.16" font-family="Helvetica,sans-Serif" font-style="italic" font-size="32.00" fill="#29235c">VARCHAR</text>
<polygon fill="none" stroke="#29235c" stroke-width="2" points="178.53,-837.96 178.53,-1139.96 603.53,-1139.96 603.53,-837.96 178.53,-837.96"/>
</g>
<!-- CheckIn&#45;&gt;Booking -->
<!-- CheckIn&#45;&gt;Booking -->
<g id="edge12" class="edge">
<title>CheckIn:e&#45;&gt;Booking:w</title>
<path fill="none" stroke="#29235c" stroke-width="3" d="M604.03,-988.96C801.36,-988.96 777.69,-1234.35 967.46,-1242.74"/>
<polygon fill="#29235c" stroke="#29235c" stroke-width="3" points="967.48,-1246.24 977.55,-1242.96 967.63,-1239.24 967.48,-1246.24"/>
<text text-anchor="middle" x="983.78" y="-1214.16" font-family="Helvetica,sans-Serif" font-size="32.00" fill="#29235c">*</text>
<text text-anchor="middle" x="595.14" y="-960.16" font-family="Helvetica,sans-Serif" font-size="32.00" fill="#29235c">1</text>
</g>
<!-- CrewMember -->
<g id="CrewMember" class="node">
<title>CrewMember</title>
<ellipse fill="none" stroke="black" stroke-width="0" cx="1958.56" cy="-2218.96" rx="258.6" ry="257.27"/>
<polygon fill="#1d71b8" stroke="transparent" points="1777.56,-2338.96 1777.56,-2398.96 2139.56,-2398.96 2139.56,-2338.96 1777.56,-2338.96"/>
<polygon fill="none" stroke="#29235c" points="1777.56,-2338.96 1777.56,-2398.96 2139.56,-2398.96 2139.56,-2338.96 1777.56,-2338.96"/>
<text text-anchor="start" x="1800.33" y="-2360.16" font-family="Helvetica,sans-Serif" font-weight="bold" font-size="32.00" fill="#ffffff"> &#160;&#160;&#160;&#160;&#160;&#160;CrewMember &#160;&#160;&#160;&#160;&#160;&#160;</text>
<polygon fill="#e7e2dd" stroke="transparent" points="1777.56,-2278.96 1777.56,-2338.96 2139.56,-2338.96 2139.56,-2278.96 1777.56,-2278.96"/>
<polygon fill="none" stroke="#29235c" points="1777.56,-2278.96 1777.56,-2338.96 2139.56,-2338.96 2139.56,-2278.96 1777.56,-2278.96"/>
<text text-anchor="start" x="1788.56" y="-2300.16" font-family="Helvetica,sans-Serif" font-weight="bold" font-size="32.00" fill="#29235c">id</text>
<text text-anchor="start" x="1813.45" y="-2300.16" font-family="Helvetica,sans-Serif" font-size="32.00" fill="#29235c"> &#160;&#160;&#160;</text>
<text text-anchor="start" x="1986.34" y="-2300.16" font-family="Helvetica,sans-Serif" font-style="italic" font-size="32.00" fill="#29235c">INTEGER</text>
<polygon fill="#e7e2dd" stroke="transparent" points="1777.56,-2218.96 1777.56,-2278.96 2139.56,-2278.96 2139.56,-2218.96 1777.56,-2218.96"/>
<polygon fill="none" stroke="#29235c" points="1777.56,-2218.96 1777.56,-2278.96 2139.56,-2278.96 2139.56,-2218.96 1777.56,-2218.96"/>
<text text-anchor="start" x="1788.1" y="-2239.16" font-family="Helvetica,sans-Serif" font-size="32.00" fill="#29235c">first_name &#160;&#160;&#160;</text>
<text text-anchor="start" x="1972.35" y="-2240.16" font-family="Helvetica,sans-Serif" font-style="italic" font-size="32.00" fill="#29235c">VARCHAR</text>
<polygon fill="#e7e2dd" stroke="transparent" points="1777.56,-2158.96 1777.56,-2218.96 2139.56,-2218.96 2139.56,-2158.96 1777.56,-2158.96"/>
<polygon fill="none" stroke="#29235c" points="1777.56,-2158.96 1777.56,-2218.96 2139.56,-2218.96 2139.56,-2158.96 1777.56,-2158.96"/>
<text text-anchor="start" x="1788.56" y="-2179.16" font-family="Helvetica,sans-Serif" font-size="32.00" fill="#29235c">last_name &#160;&#160;&#160;</text>
<text text-anchor="start" x="1972.35" y="-2180.16" font-family="Helvetica,sans-Serif" font-style="italic" font-size="32.00" fill="#29235c">VARCHAR</text>
<polygon fill="#e7e2dd" stroke="transparent" points="1777.56,-2098.96 1777.56,-2158.96 2139.56,-2158.96 2139.56,-2098.96 1777.56,-2098.96"/>
<polygon fill="none" stroke="#29235c" points="1777.56,-2098.96 1777.56,-2158.96 2139.56,-2158.96 2139.56,-2098.96 1777.56,-2098.96"/>
<text text-anchor="start" x="1788.56" y="-2119.16" font-family="Helvetica,sans-Serif" font-size="32.00" fill="#29235c">position &#160;&#160;&#160;</text>
<text text-anchor="start" x="1972.14" y="-2120.16" font-family="Helvetica,sans-Serif" font-style="italic" font-size="32.00" fill="#29235c">VARCHAR</text>
<polygon fill="#e7e2dd" stroke="transparent" points="1777.56,-2038.96 1777.56,-2098.96 2139.56,-2098.96 2139.56,-2038.96 1777.56,-2038.96"/>
<polygon fill="none" stroke="#29235c" points="1777.56,-2038.96 1777.56,-2098.96 2139.56,-2098.96 2139.56,-2038.96 1777.56,-2038.96"/>
<text text-anchor="start" x="1788.56" y="-2059.16" font-family="Helvetica,sans-Serif" font-size="32.00" fill="#29235c">airline_id &#160;&#160;&#160;</text>
<text text-anchor="start" x="1986.34" y="-2060.16" font-family="Helvetica,sans-Serif" font-style="italic" font-size="32.00" fill="#29235c">INTEGER</text>
<polygon fill="none" stroke="#29235c" stroke-width="2" points="1776.56,-2037.96 1776.56,-2399.96 2140.56,-2399.96 2140.56,-2037.96 1776.56,-2037.96"/>
</g>
<!-- CrewMember&#45;&gt;Airline -->
<!-- CrewMember&#45;&gt;Airline -->
<g id="edge14" class="edge">
<title>CrewMember:e&#45;&gt;Airline:w</title>
<path fill="none" stroke="#29235c" stroke-width="3" d="M2140.56,-2068.96C2271.12,-2068.96 2265.14,-1921.08 2388.49,-1913.28"/>
<polygon fill="#29235c" stroke="#29235c" stroke-width="3" points="2388.92,-1916.77 2398.8,-1912.96 2388.7,-1909.77 2388.92,-1916.77"/>
<text text-anchor="middle" x="2405.03" y="-1922.56" font-family="Helvetica,sans-Serif" font-size="32.00" fill="#29235c">*</text>
<text text-anchor="middle" x="2149.46" y="-2078.56" font-family="Helvetica,sans-Serif" font-size="32.00" fill="#29235c">1</text>
</g>
<!-- Luggage -->
<g id="Luggage" class="node">
<title>Luggage</title>
<ellipse fill="none" stroke="black" stroke-width="0" cx="1205.55" cy="-662.96" rx="279.11" ry="214.92"/>
<polygon fill="#1d71b8" stroke="transparent" points="1010.55,-752.96 1010.55,-812.96 1401.55,-812.96 1401.55,-752.96 1010.55,-752.96"/>
<polygon fill="none" stroke="#29235c" points="1010.55,-752.96 1010.55,-812.96 1401.55,-812.96 1401.55,-752.96 1010.55,-752.96"/>
<text text-anchor="start" x="1081.54" y="-774.16" font-family="Helvetica,sans-Serif" font-weight="bold" font-size="32.00" fill="#ffffff"> &#160;&#160;&#160;&#160;&#160;&#160;Luggage &#160;&#160;&#160;&#160;&#160;&#160;</text>
<polygon fill="#e7e2dd" stroke="transparent" points="1010.55,-692.96 1010.55,-752.96 1401.55,-752.96 1401.55,-692.96 1010.55,-692.96"/>
<polygon fill="none" stroke="#29235c" points="1010.55,-692.96 1010.55,-752.96 1401.55,-752.96 1401.55,-692.96 1010.55,-692.96"/>
<text text-anchor="start" x="1021.55" y="-714.16" font-family="Helvetica,sans-Serif" font-weight="bold" font-size="32.00" fill="#29235c">id</text>
<text text-anchor="start" x="1046.44" y="-714.16" font-family="Helvetica,sans-Serif" font-size="32.00" fill="#29235c"> &#160;&#160;&#160;</text>
<text text-anchor="start" x="1248.34" y="-714.16" font-family="Helvetica,sans-Serif" font-style="italic" font-size="32.00" fill="#29235c">INTEGER</text>
<polygon fill="#e7e2dd" stroke="transparent" points="1010.55,-632.96 1010.55,-692.96 1401.55,-692.96 1401.55,-632.96 1010.55,-632.96"/>
<polygon fill="none" stroke="#29235c" points="1010.55,-632.96 1010.55,-692.96 1401.55,-692.96 1401.55,-632.96 1010.55,-632.96"/>
<text text-anchor="start" x="1021.24" y="-653.16" font-family="Helvetica,sans-Serif" font-size="32.00" fill="#29235c">passenger_id &#160;&#160;&#160;</text>
<text text-anchor="start" x="1248.45" y="-654.16" font-family="Helvetica,sans-Serif" font-style="italic" font-size="32.00" fill="#29235c">INTEGER</text>
<polygon fill="#e7e2dd" stroke="transparent" points="1010.55,-572.96 1010.55,-632.96 1401.55,-632.96 1401.55,-572.96 1010.55,-572.96"/>
<polygon fill="none" stroke="#29235c" points="1010.55,-572.96 1010.55,-632.96 1401.55,-632.96 1401.55,-572.96 1010.55,-572.96"/>
<text text-anchor="start" x="1021.55" y="-593.16" font-family="Helvetica,sans-Serif" font-size="32.00" fill="#29235c">weight &#160;&#160;&#160;</text>
<text text-anchor="start" x="1287.43" y="-594.16" font-family="Helvetica,sans-Serif" font-style="italic" font-size="32.00" fill="#29235c">FLOAT</text>
<polygon fill="#e7e2dd" stroke="transparent" points="1010.55,-512.96 1010.55,-572.96 1401.55,-572.96 1401.55,-512.96 1010.55,-512.96"/>
<polygon fill="none" stroke="#29235c" points="1010.55,-512.96 1010.55,-572.96 1401.55,-572.96 1401.55,-512.96 1010.55,-512.96"/>
<text text-anchor="start" x="1021.55" y="-533.16" font-family="Helvetica,sans-Serif" font-size="32.00" fill="#29235c">dimensions &#160;&#160;&#160;</text>
<text text-anchor="start" x="1234.13" y="-534.16" font-family="Helvetica,sans-Serif" font-style="italic" font-size="32.00" fill="#29235c">VARCHAR</text>
<polygon fill="none" stroke="#29235c" stroke-width="2" points="1009.05,-511.96 1009.05,-813.96 1402.05,-813.96 1402.05,-511.96 1009.05,-511.96"/>
</g>
<!-- Luggage&#45;&gt;Passenger -->
<!-- Luggage&#45;&gt;Passenger -->
<g id="edge16" class="edge">
<title>Luggage:e&#45;&gt;Passenger:w</title>
<path fill="none" stroke="#29235c" stroke-width="3" d="M1402.55,-662.96C1545.57,-662.96 1578.59,-720.18 1716.45,-722.86"/>
<polygon fill="#29235c" stroke="#29235c" stroke-width="3" points="1716.53,-726.36 1726.56,-722.96 1716.6,-719.36 1716.53,-726.36"/>
<text text-anchor="middle" x="1720.34" y="-694.16" font-family="Helvetica,sans-Serif" font-size="32.00" fill="#29235c">*</text>
<text text-anchor="middle" x="1411.45" y="-634.16" font-family="Helvetica,sans-Serif" font-size="32.00" fill="#29235c">1</text>
</g>
<!-- MaintenanceRecord -->
<g id="MaintenanceRecord" class="node">
<title>MaintenanceRecord</title>
<ellipse fill="none" stroke="black" stroke-width="0" cx="391.03" cy="-214.96" rx="391.06" ry="214.92"/>
<polygon fill="#1d71b8" stroke="transparent" points="117.03,-304.96 117.03,-364.96 666.03,-364.96 666.03,-304.96 117.03,-304.96"/>
<polygon fill="none" stroke="#29235c" points="117.03,-304.96 117.03,-364.96 666.03,-364.96 666.03,-304.96 117.03,-304.96"/>
<text text-anchor="start" x="186.14" y="-326.16" font-family="Helvetica,sans-Serif" font-weight="bold" font-size="32.00" fill="#ffffff"> &#160;&#160;&#160;&#160;&#160;&#160;MaintenanceRecord &#160;&#160;&#160;&#160;&#160;&#160;</text>
<polygon fill="#e7e2dd" stroke="transparent" points="117.03,-244.96 117.03,-304.96 666.03,-304.96 666.03,-244.96 117.03,-244.96"/>
<polygon fill="none" stroke="#29235c" points="117.03,-244.96 117.03,-304.96 666.03,-304.96 666.03,-244.96 117.03,-244.96"/>
<text text-anchor="start" x="128.03" y="-266.16" font-family="Helvetica,sans-Serif" font-weight="bold" font-size="32.00" fill="#29235c">id</text>
<text text-anchor="start" x="152.92" y="-266.16" font-family="Helvetica,sans-Serif" font-size="32.00" fill="#29235c"> &#160;&#160;&#160;</text>
<text text-anchor="start" x="512.81" y="-266.16" font-family="Helvetica,sans-Serif" font-style="italic" font-size="32.00" fill="#29235c">INTEGER</text>
<polygon fill="#e7e2dd" stroke="transparent" points="117.03,-184.96 117.03,-244.96 666.03,-244.96 666.03,-184.96 117.03,-184.96"/>
<polygon fill="none" stroke="#29235c" points="117.03,-184.96 117.03,-244.96 666.03,-244.96 666.03,-184.96 117.03,-184.96"/>
<text text-anchor="start" x="128.03" y="-205.16" font-family="Helvetica,sans-Serif" font-size="32.00" fill="#29235c">aircraft_id &#160;&#160;&#160;</text>
<text text-anchor="start" x="512.81" y="-206.16" font-family="Helvetica,sans-Serif" font-style="italic" font-size="32.00" fill="#29235c">INTEGER</text>
<polygon fill="#e7e2dd" stroke="transparent" points="117.03,-124.96 117.03,-184.96 666.03,-184.96 666.03,-124.96 117.03,-124.96"/>
<polygon fill="none" stroke="#29235c" points="117.03,-124.96 117.03,-184.96 666.03,-184.96 666.03,-124.96 117.03,-124.96"/>
<text text-anchor="start" x="127.85" y="-145.16" font-family="Helvetica,sans-Serif" font-size="32.00" fill="#29235c">last_maintenance_date &#160;&#160;&#160;</text>
<text text-anchor="start" x="493.65" y="-146.16" font-family="Helvetica,sans-Serif" font-style="italic" font-size="32.00" fill="#29235c">DATETIME</text>
<polygon fill="#e7e2dd" stroke="transparent" points="117.03,-64.96 117.03,-124.96 666.03,-124.96 666.03,-64.96 117.03,-64.96"/>
<polygon fill="none" stroke="#29235c" points="117.03,-64.96 117.03,-124.96 666.03,-124.96 666.03,-64.96 117.03,-64.96"/>
<text text-anchor="start" x="128.03" y="-85.16" font-family="Helvetica,sans-Serif" font-size="32.00" fill="#29235c">description &#160;&#160;&#160;</text>
<text text-anchor="start" x="498.6" y="-86.16" font-family="Helvetica,sans-Serif" font-style="italic" font-size="32.00" fill="#29235c">VARCHAR</text>
<polygon fill="none" stroke="#29235c" stroke-width="2" points="115.53,-63.96 115.53,-365.96 666.53,-365.96 666.53,-63.96 115.53,-63.96"/>
</g>
<!-- MaintenanceRecord&#45;&gt;Aircraft -->
<!-- MaintenanceRecord&#45;&gt;Aircraft -->
<g id="edge18" class="edge">
<title>MaintenanceRecord:e&#45;&gt;Aircraft:w</title>
<path fill="none" stroke="#29235c" stroke-width="3" d="M667.03,-214.96C784.59,-214.96 810.16,-271.61 922.51,-274.82"/>
<polygon fill="#29235c" stroke="#29235c" stroke-width="3" points="922.51,-278.32 932.55,-274.96 922.6,-271.32 922.51,-278.32"/>
<text text-anchor="middle" x="938.78" y="-246.16" font-family="Helvetica,sans-Serif" font-size="32.00" fill="#29235c">*</text>
<text text-anchor="middle" x="658.14" y="-186.16" font-family="Helvetica,sans-Serif" font-size="32.00" fill="#29235c">1</text>
</g>
<!-- Route -->
<g id="Route" class="node">
<title>Route</title>
<ellipse fill="none" stroke="black" stroke-width="0" cx="1958.56" cy="-1685.96" rx="295.64" ry="257.27"/>
<polygon fill="#1d71b8" stroke="transparent" points="1751.56,-1805.96 1751.56,-1865.96 2165.56,-1865.96 2165.56,-1805.96 1751.56,-1805.96"/>
<polygon fill="none" stroke="#29235c" points="1751.56,-1805.96 1751.56,-1865.96 2165.56,-1865.96 2165.56,-1805.96 1751.56,-1805.96"/>
<text text-anchor="start" x="1853.63" y="-1827.16" font-family="Helvetica,sans-Serif" font-weight="bold" font-size="32.00" fill="#ffffff"> &#160;&#160;&#160;&#160;&#160;&#160;Route &#160;&#160;&#160;&#160;&#160;&#160;</text>
<polygon fill="#e7e2dd" stroke="transparent" points="1751.56,-1745.96 1751.56,-1805.96 2165.56,-1805.96 2165.56,-1745.96 1751.56,-1745.96"/>
<polygon fill="none" stroke="#29235c" points="1751.56,-1745.96 1751.56,-1805.96 2165.56,-1805.96 2165.56,-1745.96 1751.56,-1745.96"/>
<text text-anchor="start" x="1762.56" y="-1767.16" font-family="Helvetica,sans-Serif" font-weight="bold" font-size="32.00" fill="#29235c">id</text>
<text text-anchor="start" x="1787.45" y="-1767.16" font-family="Helvetica,sans-Serif" font-size="32.00" fill="#29235c"> &#160;&#160;&#160;</text>
<text text-anchor="start" x="2012.34" y="-1767.16" font-family="Helvetica,sans-Serif" font-style="italic" font-size="32.00" fill="#29235c">INTEGER</text>
<polygon fill="#e7e2dd" stroke="transparent" points="1751.56,-1685.96 1751.56,-1745.96 2165.56,-1745.96 2165.56,-1685.96 1751.56,-1685.96"/>
<polygon fill="none" stroke="#29235c" points="1751.56,-1685.96 1751.56,-1745.96 2165.56,-1745.96 2165.56,-1685.96 1751.56,-1685.96"/>
<text text-anchor="start" x="1762.56" y="-1706.16" font-family="Helvetica,sans-Serif" font-size="32.00" fill="#29235c">airline_id &#160;&#160;&#160;</text>
<text text-anchor="start" x="2012.34" y="-1707.16" font-family="Helvetica,sans-Serif" font-style="italic" font-size="32.00" fill="#29235c">INTEGER</text>
<polygon fill="#e7e2dd" stroke="transparent" points="1751.56,-1625.96 1751.56,-1685.96 2165.56,-1685.96 2165.56,-1625.96 1751.56,-1625.96"/>
<polygon fill="none" stroke="#29235c" points="1751.56,-1625.96 1751.56,-1685.96 2165.56,-1685.96 2165.56,-1625.96 1751.56,-1625.96"/>
<text text-anchor="start" x="1762.22" y="-1646.16" font-family="Helvetica,sans-Serif" font-size="32.00" fill="#29235c">from_airport_id &#160;&#160;&#160;</text>
<text text-anchor="start" x="2012.45" y="-1647.16" font-family="Helvetica,sans-Serif" font-style="italic" font-size="32.00" fill="#29235c">INTEGER</text>
<polygon fill="#e7e2dd" stroke="transparent" points="1751.56,-1565.96 1751.56,-1625.96 2165.56,-1625.96 2165.56,-1565.96 1751.56,-1565.96"/>
<polygon fill="none" stroke="#29235c" points="1751.56,-1565.96 1751.56,-1625.96 2165.56,-1625.96 2165.56,-1565.96 1751.56,-1565.96"/>
<text text-anchor="start" x="1762.56" y="-1586.16" font-family="Helvetica,sans-Serif" font-size="32.00" fill="#29235c">to_airport_id &#160;&#160;&#160;</text>
<text text-anchor="start" x="2012.34" y="-1587.16" font-family="Helvetica,sans-Serif" font-style="italic" font-size="32.00" fill="#29235c">INTEGER</text>
<polygon fill="#e7e2dd" stroke="transparent" points="1751.56,-1505.96 1751.56,-1565.96 2165.56,-1565.96 2165.56,-1505.96 1751.56,-1505.96"/>
<polygon fill="none" stroke="#29235c" points="1751.56,-1505.96 1751.56,-1565.96 2165.56,-1565.96 2165.56,-1505.96 1751.56,-1505.96"/>
<text text-anchor="start" x="1762.56" y="-1526.16" font-family="Helvetica,sans-Serif" font-size="32.00" fill="#29235c">duration &#160;&#160;&#160;</text>
<text text-anchor="start" x="2012.34" y="-1527.16" font-family="Helvetica,sans-Serif" font-style="italic" font-size="32.00" fill="#29235c">INTEGER</text>
<polygon fill="none" stroke="#29235c" stroke-width="2" points="1750.56,-1504.96 1750.56,-1866.96 2166.56,-1866.96 2166.56,-1504.96 1750.56,-1504.96"/>
</g>
<!-- Route&#45;&gt;Airline -->
<!-- Route&#45;&gt;Airline -->
<g id="edge20" class="edge">
<title>Route:e&#45;&gt;Airline:w</title>
<path fill="none" stroke="#29235c" stroke-width="3" d="M2166.56,-1715.96C2298.34,-1715.96 2265.36,-1902.71 2388.45,-1912.56"/>
<polygon fill="#29235c" stroke="#29235c" stroke-width="3" points="2388.67,-1916.07 2398.8,-1912.96 2388.95,-1909.07 2388.67,-1916.07"/>
<text text-anchor="middle" x="2405.03" y="-1884.16" font-family="Helvetica,sans-Serif" font-size="32.00" fill="#29235c">*</text>
<text text-anchor="middle" x="2175.46" y="-1725.56" font-family="Helvetica,sans-Serif" font-size="32.00" fill="#29235c">1</text>
</g>
<!-- Route&#45;&gt;Airport -->
<!-- Route&#45;&gt;Airport -->
<g id="edge22" class="edge">
<title>Route:e&#45;&gt;Airport:w</title>
<path fill="none" stroke="#29235c" stroke-width="3" d="M2166.56,-1655.96C2303.5,-1655.96 2274.9,-1468.84 2403.43,-1459.34"/>
<polygon fill="#29235c" stroke="#29235c" stroke-width="3" points="2403.94,-1462.82 2413.8,-1458.96 2403.68,-1455.82 2403.94,-1462.82"/>
<text text-anchor="middle" x="2407.58" y="-1468.56" font-family="Helvetica,sans-Serif" font-size="32.00" fill="#29235c">*</text>
<text text-anchor="middle" x="2175.46" y="-1665.56" font-family="Helvetica,sans-Serif" font-size="32.00" fill="#29235c">1</text>
</g>
<!-- Route&#45;&gt;Airport -->
<!-- Route&#45;&gt;Airport -->
<g id="edge24" class="edge">
<title>Route:e&#45;&gt;Airport:w</title>
<path fill="none" stroke="#29235c" stroke-width="3" d="M2166.56,-1595.96C2288.75,-1595.96 2288.3,-1466.35 2403.78,-1459.26"/>
<polygon fill="#29235c" stroke="#29235c" stroke-width="3" points="2403.91,-1462.76 2413.8,-1458.96 2403.7,-1455.76 2403.91,-1462.76"/>
<text text-anchor="middle" x="2407.58" y="-1430.16" font-family="Helvetica,sans-Serif" font-size="32.00" fill="#29235c">*</text>
<text text-anchor="middle" x="2175.46" y="-1605.56" font-family="Helvetica,sans-Serif" font-size="32.00" fill="#29235c">1</text>
</g>
</g>
</svg>
